<svg width="200" height="50" viewBox="0 0 200 50" fill="none" xmlns="http://www.w3.org/2000/svg">
<path d="M184.966 36.9356C180.461 36.9356 176.973 35.8275 174.502 33.6111C172.032 31.3947 170.796 27.9975 170.796 23.4195C170.796 19.2774 171.85 16.0074 173.957 13.6094C176.065 11.2114 179.262 10.0123 183.549 10.0123C187.473 10.0123 190.416 11.0479 192.378 13.1189C194.377 15.1536 195.376 17.7878 195.376 21.0215V24.8175C195.376 25.3698 194.928 25.8175 194.376 25.8175H177.587C176.989 25.8175 176.519 26.3406 176.644 26.9254C177.051 28.84 177.899 30.1966 179.189 30.9951C180.715 31.9397 183.041 32.4121 186.165 32.4121C187.473 32.4121 188.818 32.2849 190.198 32.0306C190.995 31.8839 191.73 31.7131 192.406 31.5181C193.083 31.3226 193.795 31.812 193.795 32.5168V34.7556C193.795 35.1529 193.561 35.5155 193.19 35.6567C192.173 36.0437 191.03 36.3428 189.762 36.5541C188.273 36.8085 186.674 36.9356 184.966 36.9356ZM176.492 20.9481C176.46 21.4995 176.912 21.948 177.464 21.948H189.144C189.696 21.948 190.144 21.5003 190.144 20.948V20.1495C190.144 18.3691 189.653 16.9884 188.672 16.0074C187.691 14.9901 186.038 14.4814 183.713 14.4814C180.952 14.4814 179.044 15.0809 177.99 16.2799C177.109 17.3183 176.61 18.8743 176.492 20.9481Z" fill="#ABDFEB"/>
<path d="M141.821 48.1627C141.269 48.1627 140.821 47.715 140.821 47.1627V11.5574C140.821 11.0051 141.269 10.5574 141.821 10.5574H145.131C145.596 10.5574 145.988 10.9026 146.047 11.3635C146.141 12.1036 147.042 12.4431 147.66 12.0247C148.427 11.5049 149.236 11.0885 150.086 10.7754C151.467 10.2667 153.102 10.0123 154.991 10.0123C158.697 10.0123 161.586 11.0297 163.657 13.0644C165.728 15.0627 166.763 18.3873 166.763 23.038C166.763 27.6887 165.691 31.1767 163.548 33.5021C161.404 35.7911 158.479 36.9356 154.773 36.9356C152.374 36.9356 150.243 36.5074 148.38 35.651C147.658 35.3189 146.761 35.8119 146.761 36.6072V47.1627C146.761 47.715 146.314 48.1627 145.761 48.1627H141.821ZM153.247 32.4666C158.261 32.4666 160.768 29.3056 160.768 22.9835C160.768 19.9315 160.205 17.7696 159.079 16.4979C157.952 15.1899 156.063 14.5359 153.411 14.5359C150.901 14.5359 148.782 15.3489 147.053 16.975C146.863 17.1543 146.761 17.4075 146.761 17.6692V29.7066C146.761 30.0048 146.893 30.2897 147.131 30.4699C147.868 31.0286 148.671 31.4943 149.541 31.8671C150.595 32.2667 151.83 32.4666 153.247 32.4666Z" fill="#ABDFEB"/>
<path d="M121.582 36.9356C116.931 36.9356 113.516 35.773 111.336 33.4476C109.192 31.1222 108.121 27.7977 108.121 23.474C108.121 19.1503 109.211 15.8257 111.391 13.5004C113.571 11.175 116.968 10.0123 121.582 10.0123C126.233 10.0123 129.648 11.175 131.828 13.5004C134.008 15.8257 135.098 19.1503 135.098 23.474C135.098 27.7977 134.008 31.1222 131.828 33.4476C129.685 35.773 126.269 36.9356 121.582 36.9356ZM121.582 31.9216C124.307 31.9216 126.233 31.2676 127.359 29.9596C128.522 28.6152 129.103 26.4534 129.103 23.474C129.103 20.4946 128.522 18.3509 127.359 17.0429C126.233 15.7349 124.307 15.0809 121.582 15.0809C118.894 15.0809 116.968 15.7349 115.805 17.0429C114.679 18.3509 114.116 20.4946 114.116 23.474C114.116 26.4534 114.679 28.6152 115.805 29.9596C116.968 31.2676 118.894 31.9216 121.582 31.9216Z" fill="#ABDFEB"/>
<path d="M91.4079 36.3906C90.8556 36.3906 90.4079 35.9429 90.4079 35.3906V11.5574C90.4079 11.0051 90.8556 10.5574 91.4079 10.5574H94.9611C95.4714 10.5574 95.8999 10.9416 95.9552 11.4489L96.0091 11.9428C96.0898 12.6827 96.9265 13.0849 97.5832 12.7346C98.4899 12.251 99.4953 11.7977 100.599 11.3749C101.918 10.8699 103.226 10.484 104.523 10.2173C105.122 10.094 105.668 10.5638 105.668 11.176V13.6986C105.668 14.1831 105.32 14.596 104.847 14.698C104.062 14.8671 103.227 15.0856 102.344 15.3534C101.181 15.6804 100.073 16.0619 99.019 16.4979C98.1923 16.8115 97.4663 17.1362 96.8409 17.4722C96.5314 17.6384 96.3484 17.9664 96.3484 18.3176V35.3906C96.3484 35.9429 95.9007 36.3906 95.3484 36.3906H91.4079Z" fill="#ABDFEB"/>
<path d="M68.6622 37.7531C65.5738 37.7531 63.1939 36.8993 61.5226 35.1916C59.8876 33.4839 59.0701 30.9769 59.0701 27.6705V12.3749C59.0701 11.8226 59.5178 11.3749 60.0701 11.3749H64.0106C64.5629 11.3749 65.0106 11.8226 65.0106 12.3749V27.6705C65.0106 29.5962 65.483 31.0132 66.4276 31.9216C67.3723 32.8299 68.8257 33.2841 70.7877 33.2841C72.241 33.2841 73.5854 33.0116 74.8207 32.4666C75.9232 31.9802 76.8954 31.3491 77.7375 30.5734C77.9325 30.3937 78.0363 30.1376 78.0363 29.8723V12.3749C78.0363 11.8226 78.484 11.3749 79.0363 11.3749H82.9223C83.4746 11.3749 83.9223 11.8226 83.9223 12.3749V36.2081C83.9223 36.7604 83.4746 37.2081 82.9223 37.2081H79.4202C78.9127 37.2081 78.4876 36.8242 78.4361 36.3193C78.3571 35.5451 77.4443 35.1477 76.7753 35.5454C75.9675 36.0257 75.0798 36.4528 74.1122 36.8266C72.5135 37.4443 70.6969 37.7531 68.6622 37.7531Z" fill="#ABDFEB"/>
<path d="M52.5654 32.3572C53.1176 32.3572 53.5652 32.8051 53.5654 33.3572V35.9353C53.5654 36.4876 53.1177 36.9353 52.5654 36.9353H35.0869V32.3572H52.5654ZM52.5654 1.83767C53.1177 1.83767 53.5654 2.28538 53.5654 2.83767V5.46951C53.5654 6.02179 53.1177 6.46951 52.5654 6.46951H35.0351V16.0974C35.0351 16.6497 35.4829 17.0973 36.0351 17.0974H43.8955C44.4477 17.0976 44.8955 17.5452 44.8955 18.0974V20.6756C44.8954 21.2277 44.4476 21.6754 43.8955 21.6756H36.0351C35.4829 21.6757 35.0351 22.1233 35.0351 22.6756V32.3523H29.1025V36.0564C29.0978 36.0168 29.0947 35.9762 29.0947 35.9353V2.83767C29.0947 2.79647 29.0977 2.75549 29.1025 2.7156V6.46462H35.0869V1.83767H52.5654Z" fill="#ABDFEB"/>
<path d="M5.62401 36.9356C5.07172 36.9356 4.62401 36.4879 4.62401 35.9356V2.83726C4.62401 2.28497 5.07172 1.83726 5.62401 1.83726H29.0948V6.46981H11.5646C11.0123 6.46981 10.5646 6.91753 10.5646 7.46981V15.673C10.5646 16.2253 11.0123 16.673 11.5646 16.673H26.0782C26.6305 16.673 27.0782 17.1208 27.0782 17.673V21.0695C27.0782 21.6218 26.6305 22.0695 26.0782 22.0695H11.5646C11.0123 22.0695 10.5646 22.5173 10.5646 23.0695V31.3576C10.5646 31.9099 11.0123 32.3576 11.5646 32.3576H29.0948V36.9356H5.62401Z" fill="#ABDFEB"/>
<rect x="19.147" y="16.6614" width="25.8878" height="5.45006" fill="#4790CD"/>
<path d="M35.087 6.46496L35.087 32.3527L29.0948 32.3527L29.0948 6.46496L35.087 6.46496Z" fill="#4790CD"/>
</svg>
